<?xml version="1.0" encoding="UTF-8" ?>
<!DOCTYPE svg PUBLIC "-//W3C//DTD SVG 1.1//EN" "http://www.w3.org/Graphics/SVG/1.1/DTD/svg11.dtd">
<svg width="1250pt" height="1155pt" viewBox="0 0 1250 1155" version="1.1" xmlns="http://www.w3.org/2000/svg">
<g id="#cd1041ff">
<path fill="#cd1041" opacity="1.00" d=" M 624.59 0.00 L 624.75 0.00 C 641.99 59.16 659.30 118.31 676.40 177.51 C 713.61 181.76 750.60 190.03 785.09 204.89 C 802.83 212.50 819.85 221.99 835.09 233.90 C 851.48 246.74 865.60 263.31 872.56 283.16 C 873.94 287.41 874.38 292.86 878.80 295.18 C 962.81 342.74 1032.82 414.55 1078.45 499.59 C 1105.33 549.58 1123.85 604.07 1132.87 660.11 C 1050.61 739.62 968.93 819.71 886.88 899.43 C 899.78 943.96 912.84 988.46 925.82 1032.97 C 931.24 1050.49 935.23 1068.53 942.78 1085.31 C 951.41 1105.13 964.38 1122.55 975.81 1140.77 C 893.34 1140.78 810.86 1140.81 728.39 1140.75 C 731.98 1128.17 737.35 1116.08 739.61 1103.13 C 742.84 1084.83 739.04 1066.27 734.15 1048.63 C 697.00 1083.56 661.18 1119.87 624.22 1155.00 L 623.93 1155.00 C 587.92 1119.43 551.50 1084.26 515.22 1048.96 C 510.25 1066.75 506.40 1085.54 510.01 1103.98 C 512.33 1116.62 517.23 1128.56 521.10 1140.77 C 438.62 1140.79 356.14 1140.79 273.66 1140.77 C 288.06 1118.25 304.14 1096.25 312.37 1070.51 C 319.84 1047.01 326.30 1023.21 333.37 999.59 C 343.06 966.47 352.74 933.34 362.37 900.21 C 305.69 844.70 248.79 789.41 191.95 734.06 C 166.56 709.18 140.85 684.60 115.71 659.48 C 126.09 597.57 147.57 537.50 179.32 483.33 C 225.66 403.93 293.77 337.60 373.93 292.70 C 377.82 275.02 387.69 259.12 400.30 246.32 C 416.69 229.48 437.20 217.33 458.37 207.50 C 494.43 190.90 533.58 181.99 572.89 177.58 C 590.13 118.39 607.33 59.19 624.59 0.00 M 624.58 62.56 C 611.45 107.43 598.41 152.34 585.39 197.25 C 549.94 200.54 514.64 207.55 481.40 220.48 C 459.55 229.03 438.35 240.09 420.75 255.80 C 407.54 267.61 396.30 283.04 393.85 300.99 C 393.67 301.92 393.50 302.85 393.34 303.79 C 330.15 337.07 274.27 384.14 230.75 440.77 C 182.90 502.64 150.39 576.16 136.05 653.01 L 136.38 652.89 C 218.17 733.30 300.68 812.98 382.70 893.15 C 365.44 951.80 348.44 1010.53 331.17 1069.18 C 325.50 1088.42 316.46 1106.51 305.86 1123.49 C 369.54 1123.51 433.22 1123.50 496.90 1123.49 C 492.93 1110.73 490.61 1097.39 491.22 1084.00 C 492.18 1060.05 500.89 1037.46 507.06 1014.56 C 546.61 1052.28 585.39 1090.81 624.71 1128.78 L 624.68 1128.03 C 635.14 1118.42 645.10 1108.26 655.36 1098.44 C 684.25 1070.38 713.08 1042.27 741.85 1014.10 C 742.06 1014.54 742.49 1015.42 742.70 1015.86 C 747.25 1032.51 753.12 1048.84 756.12 1065.89 C 759.76 1085.01 758.63 1104.98 752.54 1123.49 C 816.28 1123.52 880.02 1123.49 943.76 1123.50 C 931.08 1103.98 921.40 1082.52 915.53 1059.98 C 899.30 1004.57 883.25 949.11 866.88 893.74 C 867.05 891.69 868.98 890.58 870.24 889.19 C 950.90 810.52 1031.69 731.97 1112.36 653.31 C 1096.42 565.67 1056.09 482.65 997.18 415.85 C 957.28 370.51 909.10 332.53 855.83 304.11 C 854.14 286.36 844.17 270.61 831.47 258.57 C 817.49 245.11 800.58 235.12 783.08 226.95 C 745.70 209.84 704.98 201.07 664.18 197.40 C 650.70 152.54 638.21 107.37 624.58 62.56 Z" />
<path fill="#cd1041" opacity="1.00" d=" M 625.08 168.04 C 624.95 164.39 624.22 160.63 625.48 157.09 C 633.13 178.28 638.09 200.31 644.88 221.77 C 638.33 221.65 631.78 221.45 625.22 221.49 C 624.76 203.68 625.91 185.85 625.08 168.04 Z" />
<path fill="#cd1041" opacity="1.00" d=" M 625.42 276.41 C 637.30 276.68 649.17 277.17 661.05 277.72 C 668.30 303.66 676.42 329.36 683.31 355.41 C 686.25 367.27 689.58 379.04 693.62 390.57 C 712.64 452.80 730.12 515.49 748.54 577.90 C 752.57 590.91 755.80 604.17 760.15 617.09 C 769.05 643.51 786.45 666.79 808.64 683.57 C 803.81 697.71 798.77 712.02 797.77 727.04 C 796.90 743.39 800.24 759.62 804.73 775.26 C 831.18 865.84 857.60 956.43 884.06 1047.01 C 888.84 1064.75 894.59 1082.26 902.19 1099.02 C 901.79 1098.72 900.98 1098.14 900.58 1097.84 C 880.75 1083.69 858.96 1072.61 838.43 1059.56 C 833.31 1056.54 832.48 1050.28 830.91 1045.10 C 763.22 812.57 695.24 580.12 627.44 347.62 C 625.53 340.25 625.46 332.57 625.09 325.01 C 624.76 308.81 625.59 292.61 625.42 276.41 Z" />
<path fill="#cd1041" opacity="1.00" d=" M 616.00 371.03 C 618.68 362.30 620.60 353.27 624.41 344.92 C 624.57 403.79 624.95 462.68 624.21 521.53 C 591.02 638.15 556.39 754.36 522.71 870.85 C 590.65 870.93 658.61 870.70 726.55 871.00 C 742.15 884.01 758.67 895.84 774.65 908.36 C 780.64 913.20 786.92 917.73 792.45 923.12 C 736.64 923.69 680.81 923.45 625.00 923.51 C 568.31 923.53 511.62 923.52 454.93 923.28 C 508.39 739.14 562.38 555.14 616.00 371.03 Z" />
<path fill="#cd1041" opacity="1.00" d=" M 454.42 925.72 C 458.66 930.18 462.02 935.38 465.72 940.29 C 474.28 952.31 482.74 964.42 491.60 976.23 L 491.88 976.63 C 485.58 998.60 478.99 1020.48 472.76 1042.47 C 468.09 1060.15 466.84 1078.60 468.27 1096.80 C 450.20 1085.27 432.55 1073.06 414.91 1060.90 C 427.68 1015.73 440.73 970.62 454.42 925.72 Z" />
</g>
<g id="#ffffffff">
<path fill="#ffffff" opacity="1.00" d=" M 624.58 62.56 C 638.21 107.37 650.70 152.54 664.18 197.40 C 704.98 201.07 745.70 209.84 783.08 226.95 C 800.58 235.12 817.49 245.11 831.47 258.57 C 844.17 270.61 854.14 286.36 855.83 304.11 C 909.10 332.53 957.28 370.51 997.18 415.85 C 1056.09 482.65 1096.42 565.67 1112.36 653.31 C 1099.30 648.72 1086.17 644.36 1073.04 639.97 C 1072.86 639.47 1072.49 638.47 1072.31 637.97 C 1063.24 600.58 1049.71 564.25 1031.85 530.17 C 990.31 450.47 924.67 383.69 846.00 340.31 C 837.27 353.02 825.92 363.78 813.05 372.22 C 786.74 390.18 756.32 401.02 725.63 408.78 C 743.34 469.62 761.07 530.45 778.77 591.29 C 782.52 604.47 785.98 618.01 793.21 629.81 C 804.56 649.29 822.25 664.40 841.84 675.19 C 826.43 697.12 819.33 725.56 825.74 751.90 C 834.89 784.71 844.78 817.32 854.19 850.06 C 858.23 864.67 862.66 879.18 866.88 893.74 C 883.25 949.11 899.30 1004.57 915.53 1059.98 C 921.40 1082.52 931.08 1103.98 943.76 1123.50 C 880.02 1123.49 816.28 1123.52 752.54 1123.49 C 758.63 1104.98 759.76 1085.01 756.12 1065.89 C 753.12 1048.84 747.25 1032.51 742.70 1015.86 C 741.46 1011.06 740.01 1006.31 738.63 1001.55 C 682.40 1001.51 626.18 1001.53 569.95 1001.53 C 562.46 1001.51 554.98 1001.62 547.49 1001.35 C 547.66 1001.52 547.99 1001.87 548.15 1002.04 C 573.51 1027.01 599.15 1051.71 624.56 1076.63 C 624.58 1093.76 624.35 1110.90 624.68 1128.03 L 624.71 1128.78 C 585.39 1090.81 546.61 1052.28 507.06 1014.56 C 500.89 1037.46 492.18 1060.05 491.22 1084.00 C 490.61 1097.39 492.93 1110.73 496.90 1123.49 C 433.22 1123.50 369.54 1123.51 305.86 1123.49 C 316.46 1106.51 325.50 1088.42 331.17 1069.18 C 348.44 1010.53 365.44 951.80 382.70 893.15 C 300.68 812.98 218.17 733.30 136.38 652.89 C 149.57 648.45 162.78 644.05 175.87 639.34 C 248.87 710.24 321.78 781.22 394.45 852.46 C 404.12 819.94 413.61 787.37 423.00 754.77 C 430.42 727.70 423.71 697.91 407.65 675.21 C 423.57 666.37 438.17 654.78 449.23 640.23 C 457.04 630.10 462.83 618.48 466.37 606.19 C 485.52 540.41 504.58 474.60 523.82 408.84 C 503.52 403.88 483.55 397.30 464.63 388.36 C 440.92 377.07 417.62 362.14 403.06 339.73 C 396.03 328.23 392.18 314.48 393.85 300.99 C 396.30 283.04 407.54 267.61 420.75 255.80 C 438.35 240.09 459.55 229.03 481.40 220.48 C 514.64 207.55 549.94 200.54 585.39 197.25 C 598.41 152.34 611.45 107.43 624.58 62.56 M 623.89 152.59 C 623.92 153.86 624.11 155.16 623.69 156.40 C 617.66 176.66 611.53 196.90 606.06 217.32 C 604.74 218.85 603.49 220.43 602.26 222.03 C 557.01 223.97 511.23 231.64 469.91 250.89 C 452.86 259.29 435.64 269.79 425.52 286.43 C 418.23 297.73 417.16 312.79 423.00 324.94 C 427.55 334.44 434.82 342.41 443.08 348.85 C 456.60 359.37 472.20 366.87 488.15 372.93 C 509.93 381.13 532.77 386.04 555.65 389.99 C 555.54 390.53 555.33 391.61 555.23 392.14 C 535.03 458.53 516.35 525.38 496.64 591.92 C 491.91 609.07 487.01 626.44 477.82 641.84 C 468.45 658.24 455.25 672.15 440.59 683.92 C 445.91 698.77 451.18 714.00 451.63 729.94 C 452.14 748.38 447.41 766.43 442.14 783.95 C 418.30 865.44 394.44 946.92 370.61 1028.42 C 363.55 1051.83 357.94 1075.85 347.29 1097.99 C 388.08 1098.00 428.90 1098.55 469.67 1097.74 C 469.32 1097.51 468.62 1097.04 468.27 1096.80 C 466.84 1078.60 468.09 1060.15 472.76 1042.47 C 478.99 1020.48 485.58 998.60 491.88 976.63 L 491.60 976.23 C 580.18 976.26 668.76 976.24 757.34 976.24 C 762.90 995.53 768.60 1014.78 774.22 1034.06 C 780.63 1054.70 783.00 1076.62 780.61 1098.13 C 820.60 1097.86 860.59 1098.50 900.58 1097.84 C 900.98 1098.14 901.79 1098.72 902.19 1099.02 C 894.59 1082.26 888.84 1064.75 884.06 1047.01 C 857.60 956.43 831.18 865.84 804.73 775.26 C 800.24 759.62 796.90 743.39 797.77 727.04 C 798.77 712.02 803.81 697.71 808.64 683.57 C 786.45 666.79 769.05 643.51 760.15 617.09 C 755.80 604.17 752.57 590.91 748.54 577.90 C 730.12 515.49 712.64 452.80 693.62 390.57 L 694.43 389.76 C 723.29 385.11 752.05 378.12 778.60 365.61 C 794.92 357.68 811.12 347.83 821.79 332.77 C 827.05 325.63 830.26 316.88 830.02 307.96 C 830.24 297.88 826.16 288.09 819.71 280.45 C 806.68 264.18 787.76 254.19 768.92 246.15 C 729.58 230.22 687.09 223.65 644.88 221.77 C 638.09 200.31 633.13 178.28 625.48 157.09 C 624.95 155.58 624.42 154.09 623.89 152.59 Z" />
<path fill="#ffffff" opacity="1.00" d=" M 773.75 264.93 C 773.08 263.54 773.89 261.83 775.02 260.97 C 782.08 260.38 789.27 262.77 794.83 267.10 C 798.43 270.12 801.84 274.02 802.52 278.82 C 794.61 280.85 786.37 277.72 780.20 272.78 C 777.59 270.63 774.62 268.38 773.75 264.93 Z" />
<path fill="#ffffff" opacity="1.00" d=" M 624.21 521.53 C 625.14 523.26 625.61 525.17 626.16 527.05 C 660.16 641.54 693.25 756.31 726.55 871.00 C 658.61 870.70 590.65 870.93 522.71 870.85 C 556.39 754.36 591.02 638.15 624.21 521.53 M 624.69 611.34 C 602.02 689.41 579.18 767.44 556.44 845.50 C 601.96 845.49 647.48 845.51 692.99 845.49 C 670.21 767.44 647.54 689.36 624.69 611.34 Z" />
</g>
<g id="#003263ff">
<path fill="#003263" opacity="1.00" d=" M 526.85 267.44 C 548.79 262.34 571.23 259.72 593.69 258.26 C 584.94 290.77 574.42 322.78 566.02 355.38 C 538.48 351.76 510.59 346.77 485.37 334.63 C 476.27 330.01 466.79 324.29 462.18 314.76 C 459.89 310.34 460.33 304.97 462.46 300.59 C 465.78 293.81 472.18 289.25 478.35 285.24 C 493.24 276.35 510.10 271.47 526.85 267.44 Z" />
<path fill="#003263" opacity="1.00" d=" M 655.61 258.27 C 687.46 260.37 719.52 264.61 749.72 275.35 C 761.79 279.90 774.11 285.32 783.03 294.97 C 787.53 299.60 790.05 306.64 787.98 312.95 C 786.14 317.96 782.49 322.08 778.50 325.51 C 769.82 332.58 759.42 337.13 748.99 340.98 C 727.84 348.67 705.54 352.42 683.31 355.41 C 676.42 329.36 668.30 303.66 661.05 277.72 C 659.37 271.20 657.29 264.79 655.61 258.27 Z" />
<path fill="#003263" opacity="1.00" d=" M 175.87 639.34 C 204.17 513.16 289.25 401.08 403.06 339.73 C 417.62 362.14 440.92 377.07 464.63 388.36 C 483.55 397.30 503.52 403.88 523.82 408.84 C 504.58 474.60 485.52 540.41 466.37 606.19 C 462.83 618.48 457.04 630.10 449.23 640.23 C 438.17 654.78 423.57 666.37 407.65 675.21 C 423.71 697.91 430.42 727.70 423.00 754.77 C 413.61 787.37 404.12 819.94 394.45 852.46 C 321.78 781.22 248.87 710.24 175.87 639.34 Z" />
<path fill="#003263" opacity="1.00" d=" M 813.05 372.22 C 825.92 363.78 837.27 353.02 846.00 340.31 C 924.67 383.69 990.31 450.47 1031.85 530.17 C 1049.71 564.25 1063.24 600.58 1072.31 637.97 C 1072.35 638.51 1072.45 639.58 1072.50 640.12 C 1000.00 710.79 927.79 781.78 854.85 852.01 C 854.69 851.52 854.36 850.54 854.19 850.06 C 844.78 817.32 834.89 784.71 825.74 751.90 C 819.33 725.56 826.43 697.12 841.84 675.19 C 822.25 664.40 804.56 649.29 793.21 629.81 C 785.98 618.01 782.52 604.47 778.77 591.29 C 761.07 530.45 743.34 469.62 725.63 408.78 C 756.32 401.02 786.74 390.18 813.05 372.22 Z" />
<path fill="#003263" opacity="1.00" d=" M 624.69 611.34 C 647.54 689.36 670.21 767.44 692.99 845.49 C 647.48 845.51 601.96 845.49 556.44 845.50 C 579.18 767.44 602.02 689.41 624.69 611.34 Z" />
<path fill="#003263" opacity="1.00" d=" M 548.15 1002.04 C 568.77 1001.45 589.42 1001.95 610.05 1001.78 C 640.59 1001.80 671.13 1001.75 701.68 1001.81 C 675.83 1026.60 650.61 1052.04 624.56 1076.63 C 599.15 1051.71 573.51 1027.01 548.15 1002.04 Z" />
<path fill="#003263" opacity="1.00" d=" M 992.71 1102.11 C 1001.97 1102.07 1011.23 1102.10 1020.50 1102.10 C 1020.52 1104.39 1020.48 1106.69 1020.39 1108.99 C 1016.92 1109.00 1013.46 1108.99 1010.00 1109.00 C 1009.99 1118.05 1010.01 1127.10 1009.99 1136.15 C 1007.52 1136.16 1005.05 1136.15 1002.60 1136.15 C 1002.58 1127.10 1002.59 1118.06 1002.60 1109.02 C 999.30 1108.98 996.01 1109.00 992.72 1109.00 C 992.70 1106.69 992.69 1104.40 992.71 1102.11 Z" />
<path fill="#003263" opacity="1.00" d=" M 1025.50 1102.10 C 1029.70 1102.09 1033.90 1102.08 1038.11 1102.10 C 1040.60 1109.07 1043.04 1116.06 1045.59 1123.01 C 1048.35 1116.10 1050.94 1109.12 1053.49 1102.12 C 1057.58 1102.06 1061.69 1102.09 1065.79 1102.10 C 1065.80 1113.38 1065.78 1124.67 1065.80 1135.95 C 1063.31 1136.03 1060.84 1136.14 1058.36 1136.17 C 1058.34 1128.02 1058.36 1119.87 1058.01 1111.74 C 1055.12 1119.83 1052.38 1127.99 1049.25 1135.99 C 1046.81 1136.07 1044.39 1136.14 1041.97 1136.17 C 1039.07 1127.80 1036.04 1119.48 1033.20 1111.10 C 1032.76 1119.44 1032.86 1127.80 1033.01 1136.15 C 1030.50 1136.15 1028.00 1136.15 1025.51 1136.15 C 1025.49 1124.80 1025.49 1113.45 1025.50 1102.10 Z" />
</g>
<g id="#900028ff">
<path fill="#900028" opacity="1.00" d=" M 623.89 152.59 C 624.42 154.09 624.95 155.58 625.48 157.09 C 624.22 160.63 624.95 164.39 625.08 168.04 C 625.91 185.85 624.76 203.68 625.22 221.49 C 619.09 221.42 612.96 221.76 606.83 221.57 C 606.55 220.16 606.29 218.74 606.06 217.32 C 611.53 196.90 617.66 176.66 623.69 156.40 C 624.11 155.16 623.92 153.86 623.89 152.59 Z" />
<path fill="#900028" opacity="1.00" d=" M 593.69 258.26 C 614.31 257.25 634.99 257.22 655.61 258.27 C 657.29 264.79 659.37 271.20 661.05 277.72 C 649.17 277.17 637.30 276.68 625.42 276.41 C 625.59 292.61 624.76 308.81 625.09 325.01 C 625.46 332.57 625.53 340.25 627.44 347.62 C 695.24 580.12 763.22 812.57 830.91 1045.10 C 832.48 1050.28 833.31 1056.54 838.43 1059.56 C 858.96 1072.61 880.75 1083.69 900.58 1097.84 C 860.59 1098.50 820.60 1097.86 780.61 1098.13 C 783.00 1076.62 780.63 1054.70 774.22 1034.06 C 768.60 1014.78 762.90 995.53 757.34 976.24 C 668.76 976.24 580.18 976.26 491.60 976.23 C 482.74 964.42 474.28 952.31 465.72 940.29 C 462.02 935.38 458.66 930.18 454.42 925.72 C 440.73 970.62 427.68 1015.73 414.91 1060.90 C 432.55 1073.06 450.20 1085.27 468.27 1096.80 C 468.62 1097.04 469.32 1097.51 469.67 1097.74 C 428.90 1098.55 388.08 1098.00 347.29 1097.99 C 357.94 1075.85 363.55 1051.83 370.61 1028.42 C 394.44 946.92 418.30 865.44 442.14 783.95 C 447.41 766.43 452.14 748.38 451.63 729.94 C 451.18 714.00 445.91 698.77 440.59 683.92 C 455.25 672.15 468.45 658.24 477.82 641.84 C 487.01 626.44 491.91 609.07 496.64 591.92 C 516.35 525.38 535.03 458.53 555.23 392.14 C 559.55 380.11 563.09 367.81 566.02 355.38 C 574.42 322.78 584.94 290.77 593.69 258.26 M 616.00 371.03 C 562.38 555.14 508.39 739.14 454.93 923.28 C 511.62 923.52 568.31 923.53 625.00 923.51 C 680.81 923.45 736.64 923.69 792.45 923.12 C 786.92 917.73 780.64 913.20 774.65 908.36 C 758.67 895.84 742.15 884.01 726.55 871.00 C 693.25 756.31 660.16 641.54 626.16 527.05 C 625.61 525.17 625.14 523.26 624.21 521.53 C 624.95 462.68 624.57 403.79 624.41 344.92 C 620.60 353.27 618.68 362.30 616.00 371.03 Z" />
</g>
<g id="#999698ff">
<path fill="#999698" opacity="1.00" d=" M 602.26 222.03 C 603.49 220.43 604.74 218.85 606.06 217.32 C 606.29 218.74 606.55 220.16 606.83 221.57 C 612.96 221.76 619.09 221.42 625.22 221.49 C 631.78 221.45 638.33 221.65 644.88 221.77 C 687.09 223.65 729.58 230.22 768.92 246.15 C 787.76 254.19 806.68 264.18 819.71 280.45 C 826.16 288.09 830.24 297.88 830.02 307.96 C 830.26 316.88 827.05 325.63 821.79 332.77 C 811.12 347.83 794.92 357.68 778.60 365.61 C 752.05 378.12 723.29 385.11 694.43 389.76 L 693.62 390.57 C 689.58 379.04 686.25 367.27 683.31 355.41 C 705.54 352.42 727.84 348.67 748.99 340.98 C 759.42 337.13 769.82 332.58 778.50 325.51 C 782.49 322.08 786.14 317.96 787.98 312.95 C 790.05 306.64 787.53 299.60 783.03 294.97 C 774.11 285.32 761.79 279.90 749.72 275.35 C 719.52 264.61 687.46 260.37 655.61 258.27 C 634.99 257.22 614.31 257.25 593.69 258.26 C 571.23 259.72 548.79 262.34 526.85 267.44 C 510.10 271.47 493.24 276.35 478.35 285.24 C 472.18 289.25 465.78 293.81 462.46 300.59 C 460.33 304.97 459.89 310.34 462.18 314.76 C 466.79 324.29 476.27 330.01 485.37 334.63 C 510.59 346.77 538.48 351.76 566.02 355.38 C 563.09 367.81 559.55 380.11 555.23 392.14 C 555.33 391.61 555.54 390.53 555.65 389.99 C 532.77 386.04 509.93 381.13 488.15 372.93 C 472.20 366.87 456.60 359.37 443.08 348.85 C 434.82 342.41 427.55 334.44 423.00 324.94 C 417.16 312.79 418.23 297.73 425.52 286.43 C 435.64 269.79 452.86 259.29 469.91 250.89 C 511.23 231.64 557.01 223.97 602.26 222.03 M 773.75 264.93 C 774.62 268.38 777.59 270.63 780.20 272.78 C 786.37 277.72 794.61 280.85 802.52 278.82 C 801.84 274.02 798.43 270.12 794.83 267.10 C 789.27 262.77 782.08 260.38 775.02 260.97 C 773.89 261.83 773.08 263.54 773.75 264.93 Z" />
<path fill="#999698" opacity="1.00" d=" M 393.34 303.79 C 393.50 302.85 393.67 301.92 393.85 300.99 C 392.18 314.48 396.03 328.23 403.06 339.73 C 289.25 401.08 204.17 513.16 175.87 639.34 C 162.78 644.05 149.57 648.45 136.38 652.89 L 136.05 653.01 C 150.39 576.16 182.90 502.64 230.75 440.77 C 274.27 384.14 330.15 337.07 393.34 303.79 Z" />
<path fill="#999698" opacity="1.00" d=" M 1072.31 637.97 C 1072.49 638.47 1072.86 639.47 1073.04 639.97 C 1086.17 644.36 1099.30 648.72 1112.36 653.31 C 1031.69 731.97 950.90 810.52 870.24 889.19 C 868.98 890.58 867.05 891.69 866.88 893.74 C 862.66 879.18 858.23 864.67 854.19 850.06 C 854.36 850.54 854.69 851.52 854.85 852.01 C 927.79 781.78 1000.00 710.79 1072.50 640.12 C 1072.45 639.58 1072.35 638.51 1072.31 637.97 Z" />
<path fill="#999698" opacity="1.00" d=" M 547.49 1001.35 C 554.98 1001.62 562.46 1001.51 569.95 1001.53 C 626.18 1001.53 682.40 1001.51 738.63 1001.55 C 740.01 1006.31 741.46 1011.06 742.70 1015.86 C 742.49 1015.42 742.06 1014.54 741.85 1014.10 C 713.08 1042.27 684.25 1070.38 655.36 1098.44 C 645.10 1108.26 635.14 1118.42 624.68 1128.03 C 624.35 1110.90 624.58 1093.76 624.56 1076.63 C 650.61 1052.04 675.83 1026.60 701.68 1001.81 C 671.13 1001.75 640.59 1001.80 610.05 1001.78 C 589.42 1001.95 568.77 1001.45 548.15 1002.04 C 547.99 1001.87 547.66 1001.52 547.49 1001.35 Z" />
</g>
</svg>
