<?xml version="1.0" encoding="UTF-8" standalone="no"?>
<svg width="20px" height="16px" viewBox="0 0 20 16" version="1.1" xmlns="http://www.w3.org/2000/svg" xmlns:xlink="http://www.w3.org/1999/xlink">
    <!-- Generator: Sketch 3.6.1 (26313) - http://www.bohemiancoding.com/sketch -->
    <title>btn_icon-email</title>
    <desc>Created with Sketch.</desc>
    <defs></defs>
    <g id="Page-1" stroke="none" stroke-width="1" fill="none" fill-rule="evenodd">
        <g id="1-LandingPage" transform="translate(-693.000000, -2916.000000)" fill="#000000">
            <g id="contact" transform="translate(0.000000, 2846.000000)">
                <g id="btn/twitter" transform="translate(641.000000, 59.000000)">
                    <g id="Group-4" transform="translate(52.000000, 9.000000)">
                        <g id="Group-5">
                            <path d="M18,2 L2,2 C0.9,2 0,2.9 0,4 L0,16 C0,17.1 0.9,18 2,18 L18,18 C19.1,18 20,17.1 20,16 L20,4 C20,2.9 19.1,2 18,2 L18,2 Z M18,6 L10,11 L2,6 L2,4 L10,9 L18,4 L18,6 L18,6 Z" id="btn_icon-email"></path>
                        </g>
                    </g>
                </g>
            </g>
        </g>
    </g>
</svg>