<?xml version="1.0" encoding="UTF-8" standalone="no"?>
<svg width="473px" height="113px" viewBox="0 0 473 113" version="1.1" xmlns="http://www.w3.org/2000/svg" xmlns:xlink="http://www.w3.org/1999/xlink">
	<title>The Miracle League of North Orange County logo</title>
	<g id="Page-1" stroke="none" stroke-width="1" fill="none" fill-rule="evenodd">
		<g id="1-LandingPage" transform="translate(-261.000000, -30.000000)">
			<g id="logo" transform="translate(261.000000, 30.000000)">
				<g id="text" transform="translate(130.000000, 3.000000)" fill="#FFFFFF">
					<g id="the-miracle-league">
						<path d="M3.78125,10.9296875 C3.81250016,10.2630175 3.828125,8.51824328 3.828125,5.6953125 C3.828125,4.1692632 3.8151043,3.15104422 3.7890625,2.640625 C1.97655344,2.73958383 0.958334453,2.7890625 0.734375,2.7890625 C0.479165391,2.7890625 0.294271406,2.74218797 0.1796875,2.6484375 C0.0651035938,2.55468703 0.0078125,2.37760547 0.0078125,2.1171875 C0.0078125,1.76301906 0.0963532813,1.37500211 0.2734375,0.953125 C1.34635953,1.20833461 2.69530438,1.3359375 4.3203125,1.3359375 L9.578125,1.3359375 C9.82291789,1.3359375 10.0039057,1.37499961 10.1210938,1.453125 C10.2382818,1.53125039 10.296875,1.69791539 10.296875,1.953125 C10.296875,2.42187734 10.1588555,2.87239367 9.8828125,3.3046875 C8.9088493,2.86197695 7.77604813,2.640625 6.484375,2.640625 L6.2890625,2.640625 C6.2630207,3.15104422 6.25,4.17186734 6.25,5.703125 C6.25,8.52084742 6.2630207,10.2630175 6.2890625,10.9296875 L7.484375,10.9296875 C7.57812547,11.1171884 7.625,11.3098948 7.625,11.5078125 C7.625,11.6901051 7.59114617,11.817708 7.5234375,11.890625 C7.45572883,11.963542 7.34635492,12 7.1953125,12 L2.5859375,12 C2.49218703,11.7708322 2.4453125,11.5494802 2.4453125,11.3359375 C2.4453125,11.1953118 2.48437461,11.0924482 2.5625,11.0273438 C2.64062539,10.9622393 2.75520758,10.9296875 2.90625,10.9296875 L3.78125,10.9296875 Z M11.4765625,1.3359375 L15.515625,1.3359375 C15.6041671,1.5286468 15.6484375,1.7213532 15.6484375,1.9140625 C15.6484375,2.10156344 15.6145837,2.2304684 15.546875,2.30078125 C15.4791663,2.3710941 15.3697924,2.40625 15.21875,2.40625 L14.6171875,2.40625 C14.5911457,3.07292 14.5807291,4.19009633 14.5859375,5.7578125 L18.46875,5.7578125 C18.4635416,4.19009633 18.4453127,3.07292 18.4140625,2.40625 L17.53125,2.40625 C17.4427079,2.17708219 17.3984375,1.95833437 17.3984375,1.75 C17.3984375,1.60416594 17.4361975,1.49869824 17.5117188,1.43359375 C17.58724,1.36848926 17.7005201,1.3359375 17.8515625,1.3359375 L21.890625,1.3359375 C21.9791671,1.5286468 22.0234375,1.7213532 22.0234375,1.9140625 C22.0234375,2.10156344 21.9895837,2.2304684 21.921875,2.30078125 C21.8541663,2.3710941 21.7473966,2.40625 21.6015625,2.40625 L20.921875,2.40625 C20.8906248,3.07292 20.8776041,4.17186734 20.8828125,5.703125 C20.8828125,8.52084742 20.8984373,10.2630175 20.9296875,10.9296875 L21.890625,10.9296875 C21.9791671,11.1171884 22.0234375,11.3098948 22.0234375,11.5078125 C22.0234375,11.6901051 21.9895837,11.817708 21.921875,11.890625 C21.8541663,11.963542 21.7473966,12 21.6015625,12 L17.53125,12 C17.4427079,11.7708322 17.3984375,11.5494802 17.3984375,11.3359375 C17.3984375,11.1953118 17.4361975,11.0924482 17.5117188,11.0273438 C17.58724,10.9622393 17.7005201,10.9296875 17.8515625,10.9296875 L18.421875,10.9296875 C18.4479168,10.3776014 18.4635416,9.0885518 18.46875,7.0625 L14.5859375,7.0625 C14.5911459,9.0885518 14.6041666,10.3776014 14.625,10.9296875 L15.515625,10.9296875 C15.6041671,11.1171884 15.6484375,11.3098948 15.6484375,11.5078125 C15.6484375,11.6901051 15.6145837,11.817708 15.546875,11.890625 C15.4791663,11.963542 15.3697924,12 15.21875,12 L11.15625,12 C11.0624995,11.7708322 11.015625,11.5494802 11.015625,11.3359375 C11.015625,11.1953118 11.0546871,11.0924482 11.1328125,11.0273438 C11.2109379,10.9622393 11.3255201,10.9296875 11.4765625,10.9296875 L12.125,10.9296875 C12.1510418,10.2630175 12.1640625,8.51824328 12.1640625,5.6953125 C12.1588541,4.1692632 12.1432293,3.07292 12.1171875,2.40625 L11.15625,2.40625 C11.0624995,2.17708219 11.015625,1.95833437 11.015625,1.75 C11.015625,1.60416594 11.0546871,1.49869824 11.1328125,1.43359375 C11.2109379,1.36848926 11.3255201,1.3359375 11.4765625,1.3359375 L11.4765625,1.3359375 Z M23.9140625,1.3359375 L31.0234375,1.3359375 C31.3567725,1.3359375 31.5950514,1.38671824 31.7382812,1.48828125 C31.8815111,1.58984426 31.953125,1.79947758 31.953125,2.1171875 C31.953125,2.50260609 31.8255221,2.89843547 31.5703125,3.3046875 C30.476557,2.86197695 29.0755294,2.640625 27.3671875,2.640625 L26.9921875,2.640625 C26.9609373,3.15104422 26.9453125,4.19009633 26.9453125,5.7578125 L30.8828125,5.7578125 C30.9713546,6.03385555 31.015625,6.32031102 31.015625,6.6171875 C31.015625,6.79427172 30.9843753,6.91276012 30.921875,6.97265625 C30.8593747,7.03255238 30.7395842,7.0625 30.5625,7.0625 L26.9453125,7.0625 C26.9505209,9.06771836 26.9661457,10.2786438 26.9921875,10.6953125 L27.640625,10.6953125 C29.3958421,10.6953125 30.7864532,10.4895854 31.8125,10.078125 C32.0416678,10.4218767 32.15625,10.7942688 32.15625,11.1953125 C32.15625,11.4817723 32.0494802,11.6874994 31.8359375,11.8125 C31.6223948,11.9375006 31.1901074,12 30.5390625,12 L23.59375,12.0078125 C23.4999995,11.7786447 23.453125,11.5572927 23.453125,11.34375 C23.453125,11.2031243 23.4921871,11.1002607 23.5703125,11.0351562 C23.6484379,10.9700518 23.7630201,10.9375 23.9140625,10.9375 L24.484375,10.9375 C24.5156252,10.2656216 24.53125,8.51824328 24.53125,5.6953125 C24.53125,4.1692632 24.5156252,3.07292 24.484375,2.40625 L23.59375,2.40625 C23.4999995,2.17708219 23.453125,1.95833437 23.453125,1.75 C23.453125,1.60416594 23.4921871,1.49869824 23.5703125,1.43359375 C23.6484379,1.36848926 23.7630201,1.3359375 23.9140625,1.3359375 L23.9140625,1.3359375 Z" id="The"></path>
						<path d="M4.96875,21.3398438 L15.6132812,21.3398438 C16.2122426,23.8528771 16.8567674,26.3593625 17.546875,28.859375 C18.2369826,31.3593875 18.9075488,33.9407419 19.5585938,36.6035156 C20.2096387,39.2662894 20.5839839,40.5976562 20.6816406,40.5976562 C20.7792974,40.5976562 21.4563739,38.0683847 22.7128906,33.0097656 C23.9694073,27.9511466 24.8645807,24.0612115 25.3984375,21.3398438 L35.6328125,21.3398438 C35.8541678,21.821617 35.9648438,22.303383 35.9648438,22.7851562 C35.9648438,23.2539086 35.8802092,23.576171 35.7109375,23.7519531 C35.5416658,23.9277353 35.2747414,24.015625 34.9101562,24.015625 L33.4257812,24.015625 C33.4257812,26.2161568 33.5462228,29.9010158 33.7871094,35.0703125 C34.027996,40.2396092 34.213541,43.6575438 34.34375,45.3242188 L36.1992188,45.3242188 C36.420574,45.7929711 36.53125,46.2747371 36.53125,46.7695312 C36.53125,47.2252627 36.4466154,47.5442699 36.2773438,47.7265625 C36.1080721,47.9088551 35.8346373,48 35.4570312,48 L26.5507812,48 C26.329426,47.4270805 26.21875,46.8737006 26.21875,46.3398438 C26.21875,45.9882795 26.3131501,45.7311206 26.5019531,45.5683594 C26.6907562,45.4055981 26.9739564,45.3242188 27.3515625,45.3242188 L28.0742188,45.3242188 C28.1523441,42.8111854 28.0286475,36.6979652 27.703125,26.984375 C26.7005158,31.2682506 25.7272183,34.9921717 24.7832031,38.15625 C23.839188,41.3203283 23.116539,43.332027 22.6152344,44.1914062 C22.1139298,45.0507855 21.192715,45.4804688 19.8515625,45.4804688 C17.8463441,45.4804688 16.733074,45.4088549 16.5117188,45.265625 C16.2903635,45.1223951 15.6718801,43.5175935 14.65625,40.4511719 C13.6406199,37.3847503 12.34506,32.8372697 10.7695312,26.8085938 C10.7174477,36.6393721 10.723958,42.8111854 10.7890625,45.3242188 L12.2929688,45.3242188 C12.514324,45.7929711 12.625,46.2747371 12.625,46.7695312 C12.625,47.2252627 12.5403654,47.5442699 12.3710938,47.7265625 C12.2018221,47.9088551 11.9283873,48 11.5507812,48 L3.38671875,48 C3.15234258,47.4270805 3.03515625,46.8737006 3.03515625,46.3398438 C3.03515625,45.9882795 3.13281152,45.7311206 3.328125,45.5683594 C3.52343848,45.4055981 3.80989395,45.3242188 4.1875,45.3242188 L5.45703125,45.3242188 C5.58724023,43.6575438 5.77278525,40.2396092 6.01367188,35.0703125 C6.2545585,29.9010158 6.36848965,26.2161568 6.35546875,24.015625 L4.1484375,24.015625 C3.92708223,23.4427055 3.81640625,22.8958359 3.81640625,22.375 C3.81640625,22.0104148 3.91406152,21.7467456 4.109375,21.5839844 C4.30468848,21.4212231 4.59114395,21.3398438 4.96875,21.3398438 L4.96875,21.3398438 Z M40.6914062,21.3398438 L51.375,21.3398438 C51.5963553,21.821617 51.7070312,22.303383 51.7070312,22.7851562 C51.7070312,23.2539086 51.6223967,23.576171 51.453125,23.7519531 C51.2838533,23.9277353 51.0104186,24.015625 50.6328125,24.015625 L48.7382812,24.015625 C48.6731768,25.6823 48.6471354,28.4296684 48.6601562,32.2578125 C48.6601562,39.3021186 48.692708,43.6575438 48.7578125,45.3242188 L51.375,45.3242188 C51.5963553,45.7929711 51.7070312,46.2747371 51.7070312,46.7695312 C51.7070312,47.2252627 51.6223967,47.5442699 51.453125,47.7265625 C51.2838533,47.9088551 51.0104186,48 50.6328125,48 L39.890625,48 C39.6562488,47.4270805 39.5390625,46.8737006 39.5390625,46.3398438 C39.5390625,45.9882795 39.6367178,45.7311206 39.8320312,45.5683594 C40.0273447,45.4055981 40.3138002,45.3242188 40.6914062,45.3242188 L42.5078125,45.3242188 C42.572917,43.6575438 42.6054688,39.2956082 42.6054688,32.2382812 C42.5924479,28.423158 42.5533857,25.6823 42.4882812,24.015625 L39.890625,24.015625 C39.6562488,23.4427055 39.5390625,22.8958359 39.5390625,22.375 C39.5390625,22.0104148 39.6367178,21.7467456 39.8320312,21.5839844 C40.0273447,21.4212231 40.3138002,21.3398438 40.6914062,21.3398438 L40.6914062,21.3398438 Z M64.3828125,34.015625 L65.9648438,34.015625 C67.6445396,34.015625 68.9303341,33.6998729 69.8222656,33.0683594 C70.7141972,32.4368458 71.1601562,31.4309965 71.1601562,30.0507812 C71.1601562,28.2669182 70.7207075,26.9941444 69.8417969,26.2324219 C68.9628862,25.4706993 67.8463609,25.0898438 66.4921875,25.0898438 C65.6718709,25.0898438 65.0013047,25.1549473 64.4804688,25.2851562 C64.4153643,26.1054729 64.3828125,28.4296684 64.3828125,32.2578125 L64.3828125,34.015625 Z M64.4804688,45.3242188 L67.3125,45.3242188 C67.5338553,45.7929711 67.6445312,46.2747371 67.6445312,46.7695312 C67.6445312,47.2252627 67.5598967,47.5442699 67.390625,47.7265625 C67.2213533,47.9088551 66.9544289,48 66.5898438,48 L55.6132812,48 C55.3789051,47.4270805 55.2617188,46.8737006 55.2617188,46.3398438 C55.2617188,45.9882795 55.359374,45.7311206 55.5546875,45.5683594 C55.750001,45.4055981 56.0364564,45.3242188 56.4140625,45.3242188 L58.2304688,45.3242188 C58.2955732,43.6575438 58.328125,39.2956082 58.328125,32.2382812 C58.328125,28.423158 58.2955732,25.6823 58.2304688,24.015625 L55.6328125,24.015625 C55.4114572,23.4427055 55.3007812,22.8958359 55.3007812,22.375 C55.3007812,22.0104148 55.3951813,21.7467456 55.5839844,21.5839844 C55.7727874,21.4212231 56.0559877,21.3398438 56.4335938,21.3398438 L66.5703125,21.3398438 C70.6328328,21.3398438 73.5331944,21.9062443 75.2714844,23.0390625 C77.0097743,24.1718807 77.8789062,25.9817584 77.8789062,28.46875 C77.8789062,31.9062672 75.7500213,34.2890559 71.4921875,35.6171875 C72.5599012,36.059898 73.46484,36.7467401 74.2070312,37.6777344 C74.9492225,38.6087286 75.7304646,39.9107989 76.5507812,41.5839844 C77.3710979,43.2571698 78.0449192,44.2988261 78.5722656,44.7089844 C79.099612,45.1191427 79.8645783,45.3242188 80.8671875,45.3242188 C81.2187518,46.4830787 81.1796896,47.283852 80.75,47.7265625 C80.3203104,48.169273 79.2330816,48.390625 77.4882812,48.390625 C75.4570211,48.390625 74.0540403,48.1725282 73.2792969,47.7363281 C72.5045534,47.300128 71.8046906,45.9720163 71.1796875,43.7519531 C70.5546844,41.5318899 69.880863,39.884771 69.1582031,38.8105469 C68.4355433,37.7363228 67.4427146,37.1992188 66.1796875,37.1992188 C65.5026008,37.1992188 64.9036484,37.2643223 64.3828125,37.3945312 C64.3958334,41.274759 64.4283852,43.9179617 64.4804688,45.3242188 L64.4804688,45.3242188 Z M95.4179688,20.96875 C97.5924588,20.96875 98.8229152,21.0403639 99.109375,21.1835938 C99.3958348,21.3268236 100.678374,24.7480134 102.957031,31.4472656 C105.235688,38.1465179 106.882807,42.7721227 107.898438,45.3242188 L109.734375,45.3242188 C109.95573,45.7929711 110.066406,46.2747371 110.066406,46.7695312 C110.066406,47.2252627 109.981772,47.5442699 109.8125,47.7265625 C109.643228,47.9088551 109.369794,48 108.992188,48 L99.0117188,48 C98.7903635,47.4270805 98.6796875,46.8737006 98.6796875,46.3398438 C98.6796875,45.9882795 98.7773428,45.7311206 98.9726562,45.5683594 C99.1679697,45.4055981 99.4544252,45.3242188 99.8320312,45.3242188 L100.691406,45.3242188 C100.496093,44.3867141 99.9947957,42.5182432 99.1875,39.71875 L90.90625,39.71875 C90.1770797,42.4531387 89.7213551,44.3216096 89.5390625,45.3242188 L91.3945312,45.3242188 C91.6158865,45.7929711 91.7265625,46.2747371 91.7265625,46.7695312 C91.7265625,47.2252627 91.6419279,47.5442699 91.4726562,47.7265625 C91.3033846,47.9088551 91.0364602,48 90.671875,48 L82.15625,48 C81.9348947,47.4270805 81.8242188,46.8737006 81.8242188,46.3398438 C81.8242188,45.9882795 81.9186188,45.7311206 82.1074219,45.5683594 C82.2962249,45.4055981 82.5794252,45.3242188 82.9570312,45.3242188 L84.0117188,45.3242188 C84.9362025,42.8111854 86.3326729,38.7324501 88.2011719,33.0878906 C90.0696708,27.4433312 91.3098928,24.0123759 91.921875,22.7949219 C92.5338572,21.5774679 93.6992102,20.96875 95.4179688,20.96875 L95.4179688,20.96875 Z M91.765625,36.4570312 L98.2304688,36.4570312 C96.2382713,29.8944984 95.121746,26.6132812 94.8808594,26.6132812 C94.6399728,26.6132812 93.6015717,29.8944984 91.765625,36.4570312 L91.765625,36.4570312 Z M124.773438,44.640625 C126.98699,44.640625 129.02473,44.0416727 130.886719,42.84375 C131.759119,43.8072965 132.195312,44.7512975 132.195312,45.6757812 C132.195312,46.5612023 131.280608,47.2350237 129.451172,47.6972656 C127.621736,48.1595075 125.483085,48.390625 123.035156,48.390625 C119.076803,48.390625 116.134124,47.5247482 114.207031,45.7929688 C112.279938,44.0611893 111.316406,40.8255445 111.316406,36.0859375 C111.316406,30.890599 112.468738,27.0690227 114.773438,24.6210938 C117.078137,22.1731648 120.346333,20.9492188 124.578125,20.9492188 C127.351576,20.9492188 129.27213,21.1477845 130.339844,21.5449219 C131.407557,21.9420593 131.941406,22.6679635 131.941406,23.7226562 C131.941406,24.5429729 131.524744,25.4283807 130.691406,26.3789062 C128.230456,25.259109 125.873709,24.6992188 123.621094,24.6992188 C121.733063,24.6992188 120.330083,25.3762953 119.412109,26.7304688 C118.494136,28.0846422 118.035156,30.5195137 118.035156,34.0351562 C118.035156,38.1888229 118.533198,40.9947844 119.529297,42.453125 C120.525396,43.9114656 122.273425,44.640625 124.773438,44.640625 L124.773438,44.640625 Z M144.578125,44.7382812 L145.046875,44.7382812 C149.408876,44.7382812 152.872383,44.2239635 155.4375,43.1953125 C156.01042,44.0546918 156.296875,44.9856721 156.296875,45.9882812 C156.296875,46.7044307 156.029951,47.2187484 155.496094,47.53125 C154.962237,47.8437516 153.881519,48 152.253906,48 L136.082031,48.0195312 C135.847655,47.4466117 135.730469,46.8932318 135.730469,46.359375 C135.730469,46.0078107 135.828124,45.7506519 136.023438,45.5878906 C136.218751,45.4251294 136.505206,45.34375 136.882812,45.34375 L138.308594,45.34375 C138.386719,43.6640541 138.425781,39.2956082 138.425781,32.2382812 C138.425781,28.423158 138.380209,25.6823 138.289062,24.015625 L136.082031,24.015625 C135.847655,23.4427055 135.730469,22.8958359 135.730469,22.375 C135.730469,22.0104148 135.828124,21.7467456 136.023438,21.5839844 C136.218751,21.4212231 136.505206,21.3398438 136.882812,21.3398438 L147.175781,21.3398438 C147.397137,21.821617 147.507812,22.303383 147.507812,22.7851562 C147.507812,23.2539086 147.423178,23.576171 147.253906,23.7519531 C147.084635,23.9277353 146.81771,24.015625 146.453125,24.015625 L144.558594,24.015625 C144.493489,25.6823 144.460938,28.4296684 144.460938,32.2578125 C144.460938,39.3021186 144.5,43.4622332 144.578125,44.7382812 L144.578125,44.7382812 Z M159.421875,21.3398438 L177.195312,21.3398438 C178.02865,21.3398438 178.624347,21.4667956 178.982422,21.7207031 C179.340497,21.9746106 179.519531,22.4986939 179.519531,23.2929688 C179.519531,24.2565152 179.200524,25.2460887 178.5625,26.2617188 C175.828111,25.1549424 172.325542,24.6015625 168.054688,24.6015625 L167.117188,24.6015625 C167.039062,25.8776105 167,28.4752408 167,32.3945312 L176.84375,32.3945312 C177.065105,33.0846389 177.175781,33.8007775 177.175781,34.5429688 C177.175781,34.9856793 177.097657,35.2819003 176.941406,35.4316406 C176.785155,35.581381 176.485679,35.65625 176.042969,35.65625 L167,35.65625 C167.013021,40.6692959 167.052083,43.6966094 167.117188,44.7382812 L168.738281,44.7382812 C173.126324,44.7382812 176.602852,44.2239635 179.167969,43.1953125 C179.740888,44.0546918 180.027344,44.9856721 180.027344,45.9882812 C180.027344,46.7044307 179.760419,47.2187484 179.226562,47.53125 C178.692706,47.8437516 177.611987,48 175.984375,48 L158.621094,48.0195312 C158.386718,47.4466117 158.269531,46.8932318 158.269531,46.359375 C158.269531,46.0078107 158.367187,45.7506519 158.5625,45.5878906 C158.757813,45.4251294 159.044269,45.34375 159.421875,45.34375 L160.847656,45.34375 C160.925782,43.6640541 160.964844,39.2956082 160.964844,32.2382812 C160.964844,28.423158 160.925782,25.6823 160.847656,24.015625 L158.621094,24.015625 C158.386718,23.4427055 158.269531,22.8958359 158.269531,22.375 C158.269531,22.0104148 158.367187,21.7467456 158.5625,21.5839844 C158.757813,21.4212231 159.044269,21.3398438 159.421875,21.3398438 L159.421875,21.3398438 Z" id="MIRACLE"></path>
						<path d="M65.5,74.390625 L65.875,74.390625 C69.3646008,74.390625 72.1354064,73.9791708 74.1875,73.15625 C74.6458356,73.8437534 74.875,74.5885377 74.875,75.390625 C74.875,75.9635445 74.6614605,76.3749988 74.234375,76.625 C73.8072895,76.8750012 72.9427148,77 71.640625,77 L58.703125,77.015625 C58.5156241,76.5572894 58.421875,76.1145855 58.421875,75.6875 C58.421875,75.4062486 58.4999992,75.2005215 58.65625,75.0703125 C58.8125008,74.9401035 59.0416652,74.875 59.34375,74.875 L60.484375,74.875 C60.5468753,73.5312433 60.578125,70.0364866 60.578125,64.390625 C60.578125,61.3385264 60.541667,59.14584 60.46875,57.8125 L58.703125,57.8125 C58.5156241,57.3541644 58.421875,56.9166687 58.421875,56.5 C58.421875,56.2083319 58.4999992,55.9973965 58.65625,55.8671875 C58.8125008,55.7369785 59.0416652,55.671875 59.34375,55.671875 L67.578125,55.671875 C67.7552092,56.0572936 67.84375,56.4427064 67.84375,56.828125 C67.84375,57.2031269 67.7760423,57.4609368 67.640625,57.6015625 C67.5052077,57.7421882 67.2916681,57.8125 67,57.8125 L65.484375,57.8125 C65.4322914,59.14584 65.40625,61.3437347 65.40625,64.40625 C65.40625,70.0416948 65.4374997,73.3697866 65.5,74.390625 L65.5,74.390625 Z M77.375,55.671875 L91.59375,55.671875 C92.26042,55.671875 92.7369777,55.7734365 93.0234375,55.9765625 C93.3098973,56.1796885 93.453125,56.5989552 93.453125,57.234375 C93.453125,58.0052122 93.1979192,58.7968709 92.6875,59.609375 C90.4999891,58.7239539 87.6979338,58.28125 84.28125,58.28125 L83.53125,58.28125 C83.4687497,59.3020884 83.4375,61.3801927 83.4375,64.515625 L91.3125,64.515625 C91.4895842,65.0677111 91.578125,65.640622 91.578125,66.234375 C91.578125,66.5885434 91.5156256,66.8255202 91.390625,66.9453125 C91.2656244,67.0651048 91.0260434,67.125 90.671875,67.125 L83.4375,67.125 C83.4479167,71.1354367 83.4791664,73.5572875 83.53125,74.390625 L84.828125,74.390625 C88.3385592,74.390625 91.1197814,73.9791708 93.171875,73.15625 C93.6302106,73.8437534 93.859375,74.5885377 93.859375,75.390625 C93.859375,75.9635445 93.6458355,76.3749988 93.21875,76.625 C92.7916645,76.8750012 91.9270898,77 90.625,77 L76.734375,77.015625 C76.5468741,76.5572894 76.453125,76.1145855 76.453125,75.6875 C76.453125,75.4062486 76.5312492,75.2005215 76.6875,75.0703125 C76.8437508,74.9401035 77.0729152,74.875 77.375,74.875 L78.515625,74.875 C78.5781253,73.5312433 78.609375,70.0364866 78.609375,64.390625 C78.609375,61.3385264 78.5781253,59.14584 78.515625,57.8125 L76.734375,57.8125 C76.5468741,57.3541644 76.453125,56.9166687 76.453125,56.5 C76.453125,56.2083319 76.5312492,55.9973965 76.6875,55.8671875 C76.8437508,55.7369785 77.0729152,55.671875 77.375,55.671875 L77.375,55.671875 Z M105.875,55.375 C107.614592,55.375 108.598957,55.4322911 108.828125,55.546875 C109.057293,55.6614589 110.083324,58.3984107 111.90625,63.7578125 C113.729176,69.1172143 115.046871,72.8176981 115.859375,74.859375 L117.328125,74.859375 C117.505209,75.2343769 117.59375,75.6197897 117.59375,76.015625 C117.59375,76.3802102 117.526042,76.6354159 117.390625,76.78125 C117.255208,76.9270841 117.03646,77 116.734375,77 L108.75,77 C108.572916,76.5416644 108.484375,76.0989605 108.484375,75.671875 C108.484375,75.3906236 108.562499,75.1848965 108.71875,75.0546875 C108.875001,74.9244785 109.104165,74.859375 109.40625,74.859375 L110.09375,74.859375 C109.937499,74.1093713 109.536462,72.6145945 108.890625,70.375 L102.265625,70.375 C101.682289,72.5625109 101.317709,74.0572877 101.171875,74.859375 L102.65625,74.859375 C102.833334,75.2343769 102.921875,75.6197897 102.921875,76.015625 C102.921875,76.3802102 102.854167,76.6354159 102.71875,76.78125 C102.583333,76.9270841 102.369793,77 102.078125,77 L95.265625,77 C95.0885408,76.5416644 95,76.0989605 95,75.671875 C95,75.3906236 95.0755201,75.1848965 95.2265625,75.0546875 C95.3776049,74.9244785 95.6041652,74.859375 95.90625,74.859375 L96.75,74.859375 C97.489587,72.8489483 98.6067634,69.5859601 100.101562,65.0703125 C101.596362,60.5546649 102.588539,57.8099007 103.078125,56.8359375 C103.567711,55.8619743 104.499993,55.375 105.875,55.375 L105.875,55.375 Z M102.953125,67.765625 L108.125,67.765625 C106.531242,62.5155987 105.638022,59.890625 105.445312,59.890625 C105.252603,59.890625 104.421882,62.5155987 102.953125,67.765625 L102.953125,67.765625 Z M131.875,73.9375 C131.875,71.9583234 131.854167,70.7265649 131.8125,70.2421875 C131.770833,69.7578101 131.710938,69.4114594 131.632812,69.203125 C131.554687,68.9947906 131.429688,68.8463546 131.257812,68.7578125 C131.085937,68.6692704 130.869793,68.625 130.609375,68.625 C130.421874,68.2708316 130.328125,67.9218767 130.328125,67.578125 C130.328125,67.171873 130.41927,66.8854175 130.601562,66.71875 C130.783855,66.5520825 131.098956,66.46875 131.546875,66.46875 L134.953125,66.46875 C135.651045,66.46875 136.11979,66.5833322 136.359375,66.8125 C136.59896,67.0416678 136.71875,67.5052048 136.71875,68.203125 L136.71875,71.46875 C136.71875,72.8437569 136.770833,74.6354056 136.875,76.84375 C136.30208,76.9479172 135.609379,77 134.796875,77 C134.578124,77 134.177086,76.6354203 133.59375,75.90625 C131.677074,76.8437547 129.713552,77.3125 127.703125,77.3125 C124.484359,77.3125 122.161465,76.5260495 120.734375,74.953125 C119.307285,73.3802005 118.59375,70.8385592 118.59375,67.328125 C118.59375,63.2656047 119.539053,60.2552181 121.429688,58.296875 C123.320322,56.3385319 126.052065,55.359375 129.625,55.359375 C131.864595,55.359375 133.406246,55.5182276 134.25,55.8359375 C135.093754,56.1536474 135.515625,56.7291625 135.515625,57.5625 C135.515625,58.3645873 135.192712,59.1718709 134.546875,59.984375 C132.473948,58.9010362 130.458343,58.359375 128.5,58.359375 C127.052076,58.359375 125.9349,58.8749948 125.148438,59.90625 C124.361975,60.9375052 123.96875,62.8854023 123.96875,65.75 C123.96875,69.1041834 124.354163,71.3697858 125.125,72.546875 C125.895837,73.7239642 127.234365,74.3125 129.140625,74.3125 C130.057296,74.3125 130.968745,74.1875012 131.875,73.9375 L131.875,73.9375 Z M153.875,57.8125 L152.09375,57.8125 C151.906249,57.3541644 151.8125,56.9166687 151.8125,56.5 C151.8125,56.2083319 151.890624,55.9973965 152.046875,55.8671875 C152.203126,55.7369785 152.43229,55.671875 152.734375,55.671875 L159.921875,55.671875 C160.098959,56.0572936 160.1875,56.4427064 160.1875,56.828125 C160.1875,57.2031269 160.119792,57.4609368 159.984375,57.6015625 C159.848958,57.7421882 159.635418,57.8125 159.34375,57.8125 L158.140625,57.8125 C158.088541,59.14584 158.067708,62.2551839 158.078125,67.140625 C158.078125,71.0885614 157.299487,73.7708262 155.742188,75.1875 C154.184888,76.6041738 151.875015,77.3125 148.8125,77.3125 C146.041653,77.3125 144.130214,76.7994843 143.078125,75.7734375 C142.026036,74.7473907 141.5,72.8437639 141.5,70.0625 C141.5,63.2291325 141.473959,59.14584 141.421875,57.8125 L139.953125,57.8125 C139.776041,57.3541644 139.6875,56.9166687 139.6875,56.5 C139.6875,56.2083319 139.76302,55.9973965 139.914062,55.8671875 C140.065105,55.7369785 140.291665,55.671875 140.59375,55.671875 L148.0625,55.671875 C148.239584,56.0572936 148.328125,56.4427064 148.328125,56.828125 C148.328125,57.2031269 148.260417,57.4609368 148.125,57.6015625 C147.989583,57.7421882 147.776043,57.8125 147.484375,57.8125 L146.421875,57.8125 C146.369791,59.1875069 146.34375,62.2135183 146.34375,66.890625 C146.34375,69.9323069 146.651039,71.9296827 147.265625,72.8828125 C147.880211,73.8359423 148.848952,74.3125 150.171875,74.3125 C151.567715,74.3125 152.549476,73.8906292 153.117188,73.046875 C153.684899,72.2031208 153.96875,70.5208459 153.96875,68 C153.96875,62.5833062 153.9375,59.1875069 153.875,57.8125 L153.875,57.8125 Z M163.203125,55.671875 L177.421875,55.671875 C178.088545,55.671875 178.565103,55.7734365 178.851562,55.9765625 C179.138022,56.1796885 179.28125,56.5989552 179.28125,57.234375 C179.28125,58.0052122 179.026044,58.7968709 178.515625,59.609375 C176.328114,58.7239539 173.526059,58.28125 170.109375,58.28125 L169.359375,58.28125 C169.296875,59.3020884 169.265625,61.3801927 169.265625,64.515625 L177.140625,64.515625 C177.317709,65.0677111 177.40625,65.640622 177.40625,66.234375 C177.40625,66.5885434 177.343751,66.8255202 177.21875,66.9453125 C177.093749,67.0651048 176.854168,67.125 176.5,67.125 L169.265625,67.125 C169.276042,71.1354367 169.307291,73.5572875 169.359375,74.390625 L170.65625,74.390625 C174.166684,74.390625 176.947906,73.9791708 179,73.15625 C179.458336,73.8437534 179.6875,74.5885377 179.6875,75.390625 C179.6875,75.9635445 179.47396,76.3749988 179.046875,76.625 C178.61979,76.8750012 177.755215,77 176.453125,77 L162.5625,77.015625 C162.374999,76.5572894 162.28125,76.1145855 162.28125,75.6875 C162.28125,75.4062486 162.359374,75.2005215 162.515625,75.0703125 C162.671876,74.9401035 162.90104,74.875 163.203125,74.875 L164.34375,74.875 C164.40625,73.5312433 164.4375,70.0364866 164.4375,64.390625 C164.4375,61.3385264 164.40625,59.14584 164.34375,57.8125 L162.5625,57.8125 C162.374999,57.3541644 162.28125,56.9166687 162.28125,56.5 C162.28125,56.2083319 162.359374,55.9973965 162.515625,55.8671875 C162.671876,55.7369785 162.90104,55.671875 163.203125,55.671875 L163.203125,55.671875 Z" id="LEAGUE"></path>
					</g>
					<g id="baseball-bat" transform="translate(188.000000, 17.000000)">
						<path d="M4.86640931,61 C4.97360823,60.7068658 5.03658189,60.3930715 5.04693852,60.0668378 L6.860706,2.93316218 C6.91204942,1.31584454 5.64215392,0 4.02412904,0 L3.88351548,0 C2.2557329,0 0.974667043,1.31322144 1.00038039,2.93316218 L1.90726413,60.0668378 C1.91244,60.3929178 1.97067024,60.7067431 2.07359448,61 L1.00292933,61 C0.437881351,61 0,61.4477153 0,62 C0,62.5561352 0.449026756,63 1.00292933,63 L5.99707067,63 C6.56211865,63 7,62.5522847 7,62 C7,61.4438648 6.55097324,61 5.99707067,61 L4.86640931,61 Z" id="Combined-Shape"></path>
					</g>
					<g id="of-north-orange-county" transform="translate(204.000000, 20.000000)">
						<path d="M7.3828125,0.986328125 C9.74610557,0.986328125 11.7219973,2.08006719 13.3105469,4.26757812 C14.0266963,5.51107393 14.3847656,6.7643166 14.3847656,8.02734375 C14.3847656,10.364595 13.3268335,12.307935 11.2109375,13.8574219 C10.0130148,14.6191444 8.75977217,15 7.45117187,15 L7.3046875,15 C4.89582129,15 2.92969512,13.8802195 1.40625,11.640625 C0.716142383,10.5078068 0.37109375,9.28060557 0.37109375,7.95898438 C0.37109375,5.72590029 1.35415684,3.84440869 3.3203125,2.31445312 C4.59636055,1.42903203 5.95051367,0.986328125 7.3828125,0.986328125 L7.3828125,0.986328125 Z M1.80664062,8.06640625 C1.80664062,9.85026934 2.59439316,11.3509054 4.16992188,12.5683594 C5.15299971,13.2324252 6.19791113,13.5644531 7.3046875,13.5644531 L7.49023438,13.5644531 C9.23503477,13.5644531 10.7096294,12.7897213 11.9140625,11.2402344 C12.6041701,10.2441356 12.9492188,9.16016211 12.9492188,7.98828125 C12.9492188,5.97655244 12.028004,4.38151631 10.1855469,3.203125 C9.27408398,2.68228906 8.33984854,2.421875 7.3828125,2.421875 C5.54035537,2.421875 4.01367793,3.22264824 2.80273438,4.82421875 C2.13866855,5.78125479 1.80664062,6.86197314 1.80664062,8.06640625 L1.80664062,8.06640625 Z M16.8164062,0.91796875 L17.0019531,0.95703125 L24.2675781,0.95703125 L24.4140625,0.91796875 C24.8372417,0.91796875 25.0846351,1.18814834 25.15625,1.72851562 C25.0585933,2.17773662 24.7884137,2.40234375 24.3457031,2.40234375 L17.5585938,2.40234375 L17.5585938,7.40234375 L22.0019531,7.40234375 L22.5292969,7.36328125 C22.8613298,7.36328125 23.0826817,7.61067461 23.1933594,8.10546875 C23.1933594,8.43099121 22.9947937,8.67838457 22.5976562,8.84765625 L21.8554688,8.80859375 L17.5585938,8.80859375 L17.5585938,14.0722656 L17.5976562,14.296875 C17.4869786,14.7656273 17.252606,15 16.8945312,15 L16.8164062,15 C16.3476539,14.9153642 16.1132812,14.6809915 16.1132812,14.296875 L16.1132812,1.66015625 C16.1848962,1.19140391 16.4192688,0.95703125 16.8164062,0.95703125 L16.8164062,0.91796875 Z" id="OF"></path>
						<path d="M0.99609375,21.0253906 L1.14257812,21.0253906 C1.45507969,21.0253906 1.72525928,21.2695288 1.953125,21.7578125 C2.31771016,22.1679708 4.99020947,25.5891605 9.97070312,32.0214844 C10.0227867,32.0214844 10.0488281,32.0572913 10.0488281,32.1289062 L10.078125,32.1679688 L10.1171875,32.1679688 L10.1171875,21.6894531 C10.2018233,21.2467426 10.4231753,21.0253906 10.78125,21.0253906 L10.8886719,21.0253906 C11.253257,21.0253906 11.474609,21.2565081 11.5527344,21.71875 L11.5527344,34.2675781 C11.5527344,34.671226 11.2955755,34.9153642 10.78125,35 C10.5013007,35 10.0716175,34.5703168 9.4921875,33.7109375 L1.80664062,23.8964844 L1.80664062,34.296875 C1.80664062,34.6614602 1.57226797,34.8828121 1.10351562,34.9609375 L1.07421875,34.9609375 C0.696612695,34.9609375 0.462240039,34.7167993 0.37109375,34.2285156 L0.37109375,21.8359375 C0.429687793,21.2955702 0.638019043,21.0253906 0.99609375,21.0253906 L0.99609375,21.0253906 Z M20.2832031,20.9863281 C22.6464962,20.9863281 24.6223879,22.0800672 26.2109375,24.2675781 C26.9270869,25.5110739 27.2851562,26.7643166 27.2851562,28.0273438 C27.2851562,30.364595 26.2272241,32.307935 24.1113281,33.8574219 C22.9134055,34.6191444 21.6601628,35 20.3515625,35 L20.2050781,35 C17.7962119,35 15.8300857,33.8802195 14.3066406,31.640625 C13.616533,30.5078068 13.2714844,29.2806056 13.2714844,27.9589844 C13.2714844,25.7259003 14.2545475,23.8444087 16.2207031,22.3144531 C17.4967512,21.429032 18.8509043,20.9863281 20.2832031,20.9863281 L20.2832031,20.9863281 Z M14.7070312,28.0664062 C14.7070312,29.8502693 15.4947838,31.3509054 17.0703125,32.5683594 C18.0533903,33.2324252 19.0983018,33.5644531 20.2050781,33.5644531 L20.390625,33.5644531 C22.1354254,33.5644531 23.61002,32.7897213 24.8144531,31.2402344 C25.5045607,30.2441356 25.8496094,29.1601621 25.8496094,27.9882812 C25.8496094,25.9765524 24.9283946,24.3815163 23.0859375,23.203125 C22.1744746,22.6822891 21.2402392,22.421875 20.2832031,22.421875 C18.440746,22.421875 16.9140686,23.2226482 15.703125,24.8242188 C15.0390592,25.7812548 14.7070312,26.8619731 14.7070312,28.0664062 L14.7070312,28.0664062 Z M29.5117188,20.9863281 L32.5878906,20.9863281 C33.8964909,20.9863281 34.9674438,21.6764254 35.8007812,23.0566406 C36.0677097,23.5904975 36.2011719,24.1471325 36.2011719,24.7265625 L36.2011719,24.8730469 C36.2011719,26.1621158 35.5729229,27.2200479 34.3164062,28.046875 L33.9550781,28.2324219 C36.1946727,32.0931183 37.3144531,34.0657548 37.3144531,34.1503906 L37.3144531,34.3359375 C37.3144531,34.7005227 37.0800805,34.9218746 36.6113281,35 L36.5722656,35 C36.2207014,35 35.8528665,34.5800823 35.46875,33.7402344 L32.4316406,28.5644531 L30.3320312,28.5644531 L30.3320312,34.3359375 C30.3320312,34.7005227 30.0976586,34.9218746 29.6289062,35 L29.5898438,35 C29.2122377,35 28.977865,34.7526066 28.8867188,34.2578125 L28.8867188,21.8066406 C28.9453128,21.2597629 29.153644,20.9863281 29.5117188,20.9863281 L29.5117188,20.9863281 Z M30.3320312,22.3925781 L30.3320312,27.1289062 L32.4316406,27.1289062 C33.597011,27.1289062 34.3619773,26.5006573 34.7265625,25.2441406 L34.765625,24.9414062 L34.765625,24.6484375 C34.765625,23.7239537 34.2480521,23.0208357 33.2128906,22.5390625 C32.9199204,22.4414058 32.4641958,22.3925781 31.8457031,22.3925781 L30.3320312,22.3925781 Z M39.0039062,20.9765625 L48.1152344,20.9765625 C48.5579449,21.0611983 48.7792969,21.2825503 48.7792969,21.640625 L48.7792969,21.7871094 C48.7792969,22.1451841 48.5091173,22.3535153 47.96875,22.4121094 L44.296875,22.4121094 L44.296875,34.3359375 C44.296875,34.7005227 44.0625023,34.9218746 43.59375,35 L43.5644531,35 C43.1868471,35 42.9524744,34.7526066 42.8613281,34.2578125 L42.8613281,22.4121094 L39.1210938,22.4121094 C38.6262996,22.3144526 38.3789062,22.0703145 38.3789062,21.6796875 C38.4830734,21.2109352 38.6914047,20.9765625 39.0039062,20.9765625 L39.0039062,20.9765625 Z M51.0449219,21.0058594 L51.1914062,21.0058594 C51.6341168,21.0970057 51.8554688,21.2923162 51.8554688,21.5917969 L51.8554688,27.4316406 L58.8085938,27.4316406 L58.8085938,21.6992188 C58.8867191,21.2369769 59.1080711,21.0058594 59.4726562,21.0058594 L59.5800781,21.0058594 C60.0227887,21.0904952 60.2441406,21.3118472 60.2441406,21.6699219 L60.2441406,34.375 C60.2441406,34.694012 60.009768,34.9023433 59.5410156,35 L59.5019531,35 C59.0397112,34.9153642 58.8085938,34.6809915 58.8085938,34.296875 L58.8085938,28.828125 L51.8554688,28.828125 L51.8554688,34.3359375 C51.8554688,34.7005227 51.6243513,34.9218746 51.1621094,35 L51.1230469,35 C50.7454408,35 50.5110682,34.7526066 50.4199219,34.2578125 L50.4199219,21.8164062 C50.4785159,21.276039 50.6868472,21.0058594 51.0449219,21.0058594 L51.0449219,21.0058594 Z M73.8964844,20.9863281 C76.2597774,20.9863281 78.2356691,22.0800672 79.8242188,24.2675781 C80.5403682,25.5110739 80.8984375,26.7643166 80.8984375,28.0273438 C80.8984375,30.364595 79.8405054,32.307935 77.7246094,33.8574219 C76.5266867,34.6191444 75.273444,35 73.9648438,35 L73.8183594,35 C71.4094932,35 69.443367,33.8802195 67.9199219,31.640625 C67.2298143,30.5078068 66.8847656,29.2806056 66.8847656,27.9589844 C66.8847656,25.7259003 67.8678287,23.8444087 69.8339844,22.3144531 C71.1100324,21.429032 72.4641855,20.9863281 73.8964844,20.9863281 L73.8964844,20.9863281 Z M68.3203125,28.0664062 C68.3203125,29.8502693 69.108065,31.3509054 70.6835938,32.5683594 C71.6666716,33.2324252 72.711583,33.5644531 73.8183594,33.5644531 L74.0039062,33.5644531 C75.7487066,33.5644531 77.2233013,32.7897213 78.4277344,31.2402344 C79.117842,30.2441356 79.4628906,29.1601621 79.4628906,27.9882812 C79.4628906,25.9765524 78.5416759,24.3815163 76.6992188,23.203125 C75.7877559,22.6822891 74.8535204,22.421875 73.8964844,22.421875 C72.0540272,22.421875 70.5273498,23.2226482 69.3164062,24.8242188 C68.6523404,25.7812548 68.3203125,26.8619731 68.3203125,28.0664062 L68.3203125,28.0664062 Z M83.125,20.9863281 L86.2011719,20.9863281 C87.5097722,20.9863281 88.580725,21.6764254 89.4140625,23.0566406 C89.6809909,23.5904975 89.8144531,24.1471325 89.8144531,24.7265625 L89.8144531,24.8730469 C89.8144531,26.1621158 89.1862042,27.2200479 87.9296875,28.046875 L87.5683594,28.2324219 C89.8079539,32.0931183 90.9277344,34.0657548 90.9277344,34.1503906 L90.9277344,34.3359375 C90.9277344,34.7005227 90.6933617,34.9218746 90.2246094,35 L90.1855469,35 C89.8339826,35 89.4661478,34.5800823 89.0820312,33.7402344 L86.0449219,28.5644531 L83.9453125,28.5644531 L83.9453125,34.3359375 C83.9453125,34.7005227 83.7109398,34.9218746 83.2421875,35 L83.203125,35 C82.8255189,35 82.5911463,34.7526066 82.5,34.2578125 L82.5,21.8066406 C82.558594,21.2597629 82.7669253,20.9863281 83.125,20.9863281 L83.125,20.9863281 Z M83.9453125,22.3925781 L83.9453125,27.1289062 L86.0449219,27.1289062 C87.2102923,27.1289062 87.9752586,26.5006573 88.3398438,25.2441406 L88.3789062,24.9414062 L88.3789062,24.6484375 C88.3789062,23.7239537 87.8613333,23.0208357 86.8261719,22.5390625 C86.5332017,22.4414058 86.0774771,22.3925781 85.4589844,22.3925781 L83.9453125,22.3925781 Z M97.0507812,21.0546875 C97.5000022,21.0546875 97.8320302,21.5071569 98.046875,22.4121094 C101.002619,30.1074604 102.493489,34.046223 102.519531,34.2285156 L102.519531,34.3359375 C102.519531,34.7005227 102.288414,34.9218746 101.826172,35 L101.787109,35 C101.35742,35 101.051433,34.5833375 100.869141,33.75 L99.21875,29.4628906 L94.921875,29.4628906 L92.9101562,34.7753906 C92.7148428,34.925131 92.5423185,35 92.3925781,35 L92.3144531,35 C91.8522112,34.9153642 91.6210938,34.6842467 91.6210938,34.3066406 L91.6210938,34.2675781 L92.8710938,30.8886719 C95.0520942,25.2050497 96.2369782,22.0507844 96.4257812,21.4257812 C96.6471365,21.1783842 96.8554678,21.0546875 97.0507812,21.0546875 L97.0507812,21.0546875 Z M97.0507812,23.8476562 L95.5078125,28.0273438 L98.6621094,28.0273438 L98.6621094,27.9882812 L97.0898438,23.8476562 L97.0507812,23.8476562 Z M104.248047,21.0253906 L104.394531,21.0253906 C104.707033,21.0253906 104.977212,21.2695288 105.205078,21.7578125 C105.569663,22.1679708 108.242163,25.5891605 113.222656,32.0214844 C113.27474,32.0214844 113.300781,32.0572913 113.300781,32.1289062 L113.330078,32.1679688 L113.369141,32.1679688 L113.369141,21.6894531 C113.453776,21.2467426 113.675128,21.0253906 114.033203,21.0253906 L114.140625,21.0253906 C114.50521,21.0253906 114.726562,21.2565081 114.804688,21.71875 L114.804688,34.2675781 C114.804688,34.671226 114.547529,34.9153642 114.033203,35 C113.753254,35 113.323571,34.5703168 112.744141,33.7109375 L105.058594,23.8964844 L105.058594,34.296875 C105.058594,34.6614602 104.824221,34.8828121 104.355469,34.9609375 L104.326172,34.9609375 C103.948566,34.9609375 103.714193,34.7167993 103.623047,34.2285156 L103.623047,21.8359375 C103.681641,21.2955702 103.889972,21.0253906 104.248047,21.0253906 L104.248047,21.0253906 Z M123.427734,20.9765625 C124.918627,20.9765625 126.25976,21.393225 127.451172,22.2265625 C127.57487,22.3958342 127.636719,22.5553378 127.636719,22.7050781 L127.636719,22.7441406 C127.636719,23.1217467 127.389325,23.3561193 126.894531,23.4472656 C126.816406,23.4472656 126.337895,23.2389344 125.458984,22.8222656 C124.886065,22.6009104 124.332685,22.4902344 123.798828,22.4902344 L123.203125,22.4902344 C121.82942,22.4902344 120.514329,23.1542902 119.257812,24.4824219 C118.444006,25.5957087 118.037109,26.7382754 118.037109,27.9101562 L118.037109,28.0566406 C118.037109,29.9707127 118.922517,31.5331971 120.693359,32.7441406 C121.617843,33.2649766 122.542313,33.5253906 123.466797,33.5253906 L123.613281,33.5253906 C124.524744,33.5253906 125.436193,33.2779973 126.347656,32.7832031 L126.347656,29.4238281 L123.681641,29.4238281 C123.219399,29.3457027 122.988281,29.1113301 122.988281,28.7207031 L122.988281,28.6914062 C123.066407,28.2226539 123.297524,27.9882812 123.681641,27.9882812 L127.119141,27.9882812 C127.483726,27.9882812 127.705078,28.2226539 127.783203,28.6914062 L127.783203,32.7832031 C127.783203,33.3821645 127.63672,33.7532545 127.34375,33.8964844 C126.087233,34.6321651 124.866542,35 123.681641,35 L123.466797,35 C121.155587,35 119.222013,33.9290472 117.666016,31.7871094 C116.930335,30.5761658 116.5625,29.3099024 116.5625,27.9882812 C116.5625,25.6380091 117.607411,23.6946691 119.697266,22.1582031 C120.979824,21.3704388 122.223301,20.9765625 123.427734,20.9765625 L123.427734,20.9765625 Z M130.087891,20.9179688 L130.273438,20.9570312 L137.539062,20.9570312 L137.685547,20.9179688 C138.108726,20.9179688 138.356119,21.1881483 138.427734,21.7285156 C138.330078,22.1777366 138.059898,22.4023438 137.617188,22.4023438 L130.830078,22.4023438 L130.830078,27.4023438 L135.273438,27.4023438 L135.800781,27.3632812 C136.132814,27.3632812 136.354166,27.6106746 136.464844,28.1054688 C136.464844,28.4309912 136.266278,28.6783846 135.869141,28.8476562 L135.126953,28.8085938 L130.830078,28.8085938 L130.830078,33.5546875 L137.792969,33.5546875 C138.138023,33.5546875 138.349609,33.8151016 138.427734,34.3359375 C138.297525,34.778648 138.076173,35 137.763672,35 L130.087891,35 C129.619138,34.9153642 129.384766,34.6809915 129.384766,34.296875 L129.384766,21.6601562 C129.456381,21.1914039 129.690753,20.9570312 130.087891,20.9570312 L130.087891,20.9179688 Z" id="NORTH-ORANGE"></path>
						<path d="M7.58789063,41.9765625 C9.0397208,41.9765625 10.3938739,42.4192664 11.6503906,43.3046875 C11.7480474,43.4934905 11.796875,43.6399734 11.796875,43.7441406 L11.796875,43.8222656 C11.796875,44.2389344 11.5397161,44.473307 11.0253906,44.5253906 L10.9863281,44.5253906 L9.69726562,43.8613281 C8.83788633,43.5878893 8.13476836,43.4511719 7.58789063,43.4511719 C5.83657979,43.4511719 4.32292305,44.2519451 3.046875,45.8535156 C2.40885098,46.9277397 2.08984375,47.9726512 2.08984375,48.9882812 C2.08984375,51.0390728 3.05012061,52.6634055 4.97070312,53.8613281 C5.82357197,54.3040387 6.67317285,54.5253906 7.51953125,54.5253906 L7.62695312,54.5253906 C8.7076877,54.5253906 9.80142676,54.180342 10.9082031,53.4902344 L11.1328125,53.4902344 C11.575523,53.5878911 11.796875,53.8092431 11.796875,54.1542969 L11.796875,54.2617188 C11.796875,54.7825547 10.9733155,55.2871069 9.32617188,55.7753906 C8.81184639,55.925131 8.27148721,56 7.70507812,56 L7.51953125,56 C5.20832178,56 3.27474736,54.9290472 1.71875,52.7871094 C0.983069238,51.550124 0.615234375,50.2838606 0.615234375,48.9882812 C0.615234375,46.5598837 1.72199414,44.5807368 3.93554688,43.0507812 C5.12044863,42.3346318 6.33788437,41.9765625 7.58789063,41.9765625 L7.58789063,41.9765625 Z M20.6933594,41.9863281 C23.0566524,41.9863281 25.0325441,43.0800672 26.6210938,45.2675781 C27.3372432,46.5110739 27.6953125,47.7643166 27.6953125,49.0273438 C27.6953125,51.364595 26.6373804,53.307935 24.5214844,54.8574219 C23.3235617,55.6191444 22.070319,56 20.7617188,56 L20.6152344,56 C18.2063682,56 16.240242,54.8802195 14.7167969,52.640625 C14.0266893,51.5078068 13.6816406,50.2806056 13.6816406,48.9589844 C13.6816406,46.7259003 14.6647037,44.8444087 16.6308594,43.3144531 C17.9069074,42.429032 19.2610605,41.9863281 20.6933594,41.9863281 L20.6933594,41.9863281 Z M15.1171875,49.0664062 C15.1171875,50.8502693 15.90494,52.3509054 17.4804688,53.5683594 C18.4635466,54.2324252 19.508458,54.5644531 20.6152344,54.5644531 L20.8007812,54.5644531 C22.5455816,54.5644531 24.0201763,53.7897213 25.2246094,52.2402344 C25.914717,51.2441356 26.2597656,50.1601621 26.2597656,48.9882812 C26.2597656,46.9765524 25.3385509,45.3815163 23.4960938,44.203125 C22.5846309,43.6822891 21.6503954,43.421875 20.6933594,43.421875 C18.8509022,43.421875 17.3242248,44.2226482 16.1132812,45.8242188 C15.4492154,46.7812548 15.1171875,47.8619731 15.1171875,49.0664062 L15.1171875,49.0664062 Z M29.9023438,42.0058594 L30.0488281,42.0058594 C30.4915387,42.0970057 30.7128906,42.2923162 30.7128906,42.5917969 L30.7128906,50.4628906 C30.7128906,52.1556074 31.1946566,53.2884086 32.1582031,53.8613281 C32.7636749,54.3300805 33.4407515,54.5644531 34.1894531,54.5644531 C35.6282624,54.5644531 36.7122359,53.8255282 37.4414062,52.3476562 C37.5911466,51.8854144 37.6660156,51.4036483 37.6660156,50.9023438 L37.6660156,42.6992188 C37.744141,42.2369769 37.965493,42.0058594 38.3300781,42.0058594 L38.4375,42.0058594 C38.8802105,42.0904952 39.1015625,42.3118472 39.1015625,42.6699219 L39.1015625,51.2734375 C39.1015625,52.7382886 38.3984445,54.0175727 36.9921875,55.1113281 C36.1067664,55.703779 35.2083379,56 34.296875,56 L34.0429688,56 C32.5130132,56 31.1816463,55.2480544 30.0488281,53.7441406 C29.5345026,52.9368449 29.2773438,51.9407611 29.2773438,50.7558594 L29.2773438,42.8164062 C29.3359378,42.276039 29.544269,42.0058594 29.9023438,42.0058594 L29.9023438,42.0058594 Z M41.2890625,42.0253906 L41.4355469,42.0253906 C41.7480484,42.0253906 42.018228,42.2695288 42.2460938,42.7578125 C42.6106789,43.1679708 45.2831782,46.5891605 50.2636719,53.0214844 C50.3157555,53.0214844 50.3417969,53.0572913 50.3417969,53.1289062 L50.3710938,53.1679688 L50.4101562,53.1679688 L50.4101562,42.6894531 C50.4947921,42.2467426 50.716144,42.0253906 51.0742188,42.0253906 L51.1816406,42.0253906 C51.5462258,42.0253906 51.7675777,42.2565081 51.8457031,42.71875 L51.8457031,55.2675781 C51.8457031,55.671226 51.5885442,55.9153642 51.0742188,56 C50.7942694,56 50.3645862,55.5703168 49.7851562,54.7109375 L42.0996094,44.8964844 L42.0996094,55.296875 C42.0996094,55.6614602 41.8652367,55.8828121 41.3964844,55.9609375 L41.3671875,55.9609375 C40.9895814,55.9609375 40.7552088,55.7167993 40.6640625,55.2285156 L40.6640625,42.8359375 C40.7226565,42.2955702 40.9309878,42.0253906 41.2890625,42.0253906 L41.2890625,42.0253906 Z M54.1894531,41.9765625 L63.3007812,41.9765625 C63.7434918,42.0611983 63.9648438,42.2825503 63.9648438,42.640625 L63.9648438,42.7871094 C63.9648438,43.1451841 63.6946642,43.3535153 63.1542969,43.4121094 L59.4824219,43.4121094 L59.4824219,55.3359375 C59.4824219,55.7005227 59.2480492,55.9218746 58.7792969,56 L58.75,56 C58.3723939,56 58.1380213,55.7526066 58.046875,55.2578125 L58.046875,43.4121094 L54.3066406,43.4121094 C53.8118465,43.3144526 53.5644531,43.0703145 53.5644531,42.6796875 C53.6686203,42.2109352 53.8769516,41.9765625 54.1894531,41.9765625 L54.1894531,41.9765625 Z M66.1914062,42.0058594 L66.3476562,42.0058594 C66.6666683,42.0058594 66.9238271,42.240232 67.1191406,42.7089844 L70.4882812,47.7480469 L70.5273438,47.7480469 C72.9492309,44.0891744 74.2089839,42.2239587 74.3066406,42.1523438 C74.4368496,42.054687 74.5475256,42.0058594 74.6386719,42.0058594 L74.8632812,42.0058594 C75.1627619,42.0058594 75.3710932,42.240232 75.4882812,42.7089844 C75.4882812,42.9173187 75.0683636,43.5976505 74.2285156,44.75 L71.2304688,49.2226562 L71.2304688,55.1894531 C71.1718747,55.7298204 70.9635435,56 70.6054688,56 L70.4492188,56 C70.1302067,56 69.9088548,55.8014343 69.7851562,55.4042969 L69.7851562,49.3398438 C69.7851562,49.2486975 69.2675833,48.4316483 68.2324219,46.8886719 L65.6054688,42.9335938 L65.5664062,42.7089844 C65.6705734,42.240232 65.8789047,42.0058594 66.1914062,42.0058594 L66.1914062,42.0058594 Z" id="COUNTY"></path>
					</g>
				</g>
				<g>
					<path d="M0,12 L104,12 L104,71 L53,113 L0,71 L0,12 Z" id="Rectangle-72" fill="#0072BB"></path>
					<path d="M56.171029,27.6697795 C56.171029,27.6697795 41.171029,25.1697795 36.171029,25.1697795 C31.171029,25.1697795 17.171029,28.1697795 15.671029,40.1697795 C14.171029,52.1697795 15.6710291,63.8348885 24,72.8348923 C32.3289709,81.8348961 41.6710273,87.6697795 47.171029,89.6697795 C52.6710307,91.6697795 56.1710281,91.6697769 60,91.6697769 C63.8289719,91.6697769 81.9999983,79.25 90.5,68.5 C99.0000017,57.75 114.171027,38.1697795 114.171029,29.6697795 C114.171031,21.1697795 113,14.6697798 108.5,10.5 C104,6.33022022 99.5,3.16977954 87.5,5.5 C75.5,7.83022046 71.6710273,10.6697797 67.671029,13.6697795 C63.6710307,16.6697792 61.671029,19.6697795 61.671029,19.6697795 C61.671029,19.6697795 58.0540825,22.3264705 58.1710281,21.3348904 C58.593869,17.7496306 64.1625238,5.91149873 73.1710307,3.16977947 C84.6710325,-0.330220756 95.1710273,-0.830220532 102.171029,1.16977947 C109.171031,3.16977947 116.171027,8.16978011 117.671029,14.6697795 C119.171031,21.1697788 119.999998,31.6697795 116.5,40.1697807 C113.000002,48.669782 107.671026,56.5000026 102.171028,62.5 C96.6710299,68.4999974 83.9999983,81.5000026 78.5,85.5 C73.0000017,89.4999974 63.9813652,96.5 63.9813652,96.5 C63.9813652,96.5 49.6710292,93.669782 43.671029,91.6697795 C37.6710288,89.6697769 21.671029,81.669782 16.671029,74.6697795 C11.6710291,67.6697769 8.1710292,54.1697782 9.17102902,48.1697795 C10.1710288,42.1697807 13.6710299,29.1697801 19.671029,25.6697795 C25.6710281,22.1697788 31.1710299,19.1697801 38.171029,20.1697795 C45.1710281,21.1697788 52.671029,24.6697795 52.671029,24.6697795 L56.171029,27.6697795 Z" id="Path-22" fill="#F8941A"></path>
					<circle id="Oval-38" fill="#F1F1F1" cx="52" cy="58" r="25"></circle>
					<path d="M30,46.5 C30,46.5 41,59 47.5,59 C54,59 62,53.5 63.5,51.5 C65,49.5 67.5,45 67.5,45 C67.5,45 58,53.5 49,53.5 C40,53.5 44.5,55 38.5,51.5 C32.5,48 30,46.5 30,46.5 Z" id="Path-23" fill="#A872AA"></path>
					<path d="M43,68 C43,68 44.9999996,78.0000002 51.9999996,79.5000002 C58.9999996,81.0000002 60.9999996,79.5000002 64.9999996,79.5000002 C68.9999996,79.5000002 71,77.5 71,77.5 C71,77.5 56.25,77.5 52,75 C47.75,72.5 43,68 43,68 Z" id="Path-23" fill="#A872AA" transform="translate(57.000000, 74.083333) scale(1, -1) translate(-57.000000, -74.083333) "></path>
					<path d="M83.8695652,47.4473684 L82.1956522,51 L85.5434783,48.8684211 L90.0869565,50.5263158 L88.4130435,46.2631579 L92,43.8947368 L86.5,44.8421053 L84.5869565,42 L84.3478261,44.3684211 L81,45.3157895 L83.8695652,47.4473684 Z" id="Path-25" fill="#F2EB4C"></path>
					<path d="M45.3913043,7.65789474 L43.4130435,12 L47.3695652,9.39473684 L52.7391304,11.4210526 L50.7608696,6.21052632 L55,3.31578947 L48.5,4.47368421 L46.2391304,1 L45.9565217,3.89473684 L42,5.05263158 L45.3913043,7.65789474 Z" id="Path-25" fill="#8B429B"></path>
					<path d="M74,28.5 L70.5,36 L77.5,31.5 L87,35 L83.5,26 L91,21 L79.5,23 L75.5,17 L75.5,23 L68,24 L74,28.5 Z" id="Path-25" fill="#FFF400"></path>
				</g>
			</g>
		</g>
	</g>
</svg>