<?xml version="1.0" encoding="UTF-8" standalone="no"?>
<svg width="24px" height="24px" viewBox="0 0 24 24" version="1.1" xmlns="http://www.w3.org/2000/svg" xmlns:xlink="http://www.w3.org/1999/xlink">
    <!-- Generator: Sketch 3.6.1 (26313) - http://www.bohemiancoding.com/sketch -->
    <title>facebook-icon</title>
    <desc>Created with Sketch.</desc>
    <defs></defs>
    <g id="Page-1" stroke="none" stroke-width="1" fill="none" fill-rule="evenodd">
        <g id="1-LandingPage" transform="translate(-725.000000, -152.000000)" fill="#FFFFFF">
            <g id="hero">
                <g id="menu" transform="translate(200.000000, 152.000000)">
                    <path d="M546.6,0 L527.4,0 C526.08,0 525,1.08 525,2.4 L525,21.6 C525,22.92 526.08,24 527.4,24 L546.6,24 C547.92,24 549,22.92 549,21.6 L549,2.4 C549,1.08 547.92,0 546.6,0 L546.6,0 Z M545.4,2.4 L545.4,6 L543,6 C542.28,6 541.8,6.48 541.8,7.2 L541.8,9.6 L545.4,9.6 L545.4,13.2 L541.8,13.2 L541.8,21.6 L538.2,21.6 L538.2,13.2 L535.8,13.2 L535.8,9.6 L538.2,9.6 L538.2,6.6 C538.2,4.32 540.12,2.4 542.4,2.4 L545.4,2.4 L545.4,2.4 Z" id="facebook-icon"></path>
                </g>
            </g>
        </g>
    </g>
</svg>