<?xml version="1.0" encoding="UTF-8" standalone="no"?>
<svg width="24px" height="24px" viewBox="0 0 24 24" version="1.1" xmlns="http://www.w3.org/2000/svg" xmlns:xlink="http://www.w3.org/1999/xlink">
    <!-- Generator: Sketch 3.6.1 (26313) - http://www.bohemiancoding.com/sketch -->
    <title>twitter-icon</title>
    <desc>Created with Sketch.</desc>
    <defs></defs>
    <g id="Page-1" stroke="none" stroke-width="1" fill="none" fill-rule="evenodd">
        <g id="1-LandingPage" transform="translate(-762.000000, -152.000000)" fill="#FFFFFF">
            <g id="hero">
                <g id="menu" transform="translate(200.000000, 152.000000)">
                    <path d="M583.6,0 L564.4,0 C563.08,0 562,1.08 562,2.4 L562,21.6 C562,22.92 563.08,24 564.4,24 L583.6,24 C584.92,24 586,22.92 586,21.6 L586,2.4 C586,1.08 584.92,0 583.6,0 L583.6,0 Z M580.84,8.76 C580.72,14.28 577.24,18.12 571.96,18.36 C569.8,18.48 568.24,17.76 566.8,16.92 C568.36,17.16 570.4,16.56 571.48,15.6 C569.92,15.48 568.96,14.64 568.48,13.32 C568.96,13.44 569.44,13.32 569.8,13.32 C568.36,12.84 567.4,12 567.28,10.08 C567.64,10.32 568.12,10.44 568.6,10.44 C567.52,9.84 566.8,7.56 567.64,6.12 C569.2,7.8 571.12,9.24 574.24,9.48 C573.4,6.12 577.96,4.32 579.76,6.6 C580.6,6.48 581.2,6.12 581.8,5.88 C581.56,6.72 581.08,7.2 580.48,7.68 C581.08,7.56 581.68,7.44 582.16,7.2 C582.04,7.8 581.44,8.28 580.84,8.76 L580.84,8.76 Z" id="twitter-icon"></path>
                </g>
            </g>
        </g>
    </g>
</svg>